<svg xmlns:dc="http://purl.org/dc/elements/1.1/" xmlns:cc="http://creativecommons.org/ns#" xmlns:rdf="http://www.w3.org/1999/02/22-rdf-syntax-ns#" xmlns:svg="http://www.w3.org/2000/svg" xmlns="http://www.w3.org/2000/svg" xmlns:sodipodi="http://sodipodi.sourceforge.net/DTD/sodipodi-0.dtd" xmlns:inkscape="http://www.inkscape.org/namespaces/inkscape" version="1.1" x="0px" y="0px" viewBox="0 0 100 100"><g transform="translate(0,-952.36218)"><g transform="translate(-552,890)" style="" fill="#10e610"><path style="color:#10e610; enable-background:accumulate;" d="m 585.72687,138.5348 c 16.39233,16.39235 28.99139,20.5061 43.84063,5.65686 2.32432,-2.38599 4.49781,-5.40167 1.4142,-8.48527 l -12.02081,-9.1924 c -3.79355,-2.04092 -5.27577,-0.58977 -7.07107,1.41422 -6.56232,7.32511 -13.64263,4.89432 -18.38478,0 l -7.07107,-7.07107 c -4.89431,-4.74215 -7.32511,-11.82246 10e-6,-18.38478 2.00398,-1.7953 3.45512,-3.27751 1.41421,-7.07107 l -9.19239,-12.0208 c -3.08361,-3.08361 -6.09929,-0.91013 -8.48528,1.4142 -14.84924,14.84924 -10.73549,27.44828 5.65685,43.84063 z" fill="#10e610" stroke="none" marker="none" visibility="visible" display="inline" overflow="visible"/><path d="m 629.00795,105.35421 c 1.10457,0 2,-0.8954 2,-2 0,-1.10461 -0.89543,-2 -2,-2 l -13.15625,0 26.5625,-26.5938 c 0.78105,-0.781 0.78107,-2.03141 0,-2.81241 -0.78107,-0.78109 -2.03146,-0.78109 -2.8125,0 l -26.59375,26.56241 0,-13.1562 c 0,-1.10461 -0.8954,-2 -2,-2 -1.1046,0 -2,0.89539 -2,2 l 0,18 c 0,1.1046 0.89543,2 2,2 l 18,0 z" style="text-indent:0;text-transform:none;direction:ltr;block-progression:tb;baseline-shift:baseline;color:#000000;enable-background:accumulate;" fill="#10e610" fill-opacity="1" stroke="none" marker="none" visibility="visible" display="inline" overflow="visible"/></g></g><text x="0" y="115" fill="#000000" font-size="5px" font-weight="bold" font-family="'Helvetica Neue', Helvetica, Arial-Unicode, Arial, Sans-serif">Created by iconsphere</text><text x="0" y="120" fill="#000000" font-size="5px" font-weight="bold" font-family="'Helvetica Neue', Helvetica, Arial-Unicode, Arial, Sans-serif">from the Noun Project</text></svg>